<?xml version="1.0" standalone="no"?>
<!DOCTYPE svg PUBLIC "-//W3C//DTD SVG 20010904//EN"
 "http://www.w3.org/TR/2001/REC-SVG-20010904/DTD/svg10.dtd">
<svg version="1.0" xmlns="http://www.w3.org/2000/svg"
 width="700.000000pt" height="700.000000pt" viewBox="0 0 700.000000 700.000000"
 preserveAspectRatio="xMidYMid meet">
<metadata>
Created by potrace 1.11, written by Peter Selinger 2001-2013
</metadata>
<g transform="translate(0.000000,700.000000) scale(0.100000,-0.100000)"
fill="#000000" stroke="none">
<path d="M3235 6990 c-1212 -108 -2254 -803 -2811 -1875 -181 -348 -293 -699
-355 -1115 -26 -172 -37 -600 -20 -788 48 -526 214 -1038 484 -1487 245 -409
618 -804 1024 -1084 475 -328 1060 -537 1652 -591 196 -18 615 -8 796 20 776
118 1435 449 1980 995 778 778 1141 1885 975 2978 -118 776 -497 1490 -1075
2028 -539 501 -1216 814 -1955 905 -148 18 -553 26 -695 14z m1362 -1784 c677
-338 1058 -534 1075 -552 76 -81 74 -210 -3 -284 -13 -12 -495 -258 -1071
-546 -965 -483 -1052 -524 -1098 -524 -46 0 -133 41 -1098 524 -576 288 -1058
534 -1071 546 -77 74 -79 203 -3 284 17 18 398 214 1075 552 961 481 1051 524
1097 524 46 0 136 -43 1097 -524z m-2085 -1998 l988 -493 988 493 c918 459
991 493 1037 492 68 0 132 -33 170 -88 26 -38 30 -52 30 -112 0 -60 -4 -74
-30 -112 -29 -41 -69 -62 -1085 -572 -1010 -507 -1057 -529 -1110 -529 -53 0
-100 22 -1110 529 -1016 510 -1056 531 -1085 572 -26 38 -30 52 -30 112 0 60
4 74 30 112 38 55 102 88 170 88 46 1 119 -33 1037 -492z m6 -1017 l982 -491
981 491 c758 379 992 492 1030 496 40 5 58 1 104 -21 121 -60 151 -211 62
-313 -25 -28 -235 -137 -1079 -559 -962 -481 -1052 -524 -1098 -524 -46 0
-136 43 -1097 524 -677 338 -1058 534 -1075 552 -63 67 -74 151 -30 235 22 43
38 59 82 82 99 52 43 76 1138 -472z"/>
<path d="M2711 4906 l-785 -393 787 -391 787 -391 787 391 787 391 -785 393
c-431 216 -786 393 -789 393 -3 0 -358 -177 -789 -393z"/>
</g>
</svg>
