<?xml version="1.0" standalone="no"?>
<!DOCTYPE svg PUBLIC "-//W3C//DTD SVG 20010904//EN"
 "http://www.w3.org/TR/2001/REC-SVG-20010904/DTD/svg10.dtd">
<svg version="1.0" xmlns="http://www.w3.org/2000/svg"
 width="700.000000pt" height="700.000000pt" viewBox="0 0 700.000000 700.000000"
 preserveAspectRatio="xMidYMid meet">
<metadata>
Created by potrace 1.11, written by Peter Selinger 2001-2013
</metadata>
<g transform="translate(0.000000,700.000000) scale(0.100000,-0.100000)"
fill="#000000" stroke="none">
<path d="M3235 6990 c-1212 -108 -2254 -803 -2811 -1875 -181 -348 -293 -699
-355 -1115 -26 -172 -37 -600 -20 -788 48 -526 214 -1038 484 -1487 245 -409
618 -804 1024 -1084 475 -328 1060 -537 1652 -591 196 -18 615 -8 796 20 776
118 1435 449 1980 995 778 778 1141 1885 975 2978 -118 776 -497 1490 -1075
2028 -539 501 -1216 814 -1955 905 -148 18 -553 26 -695 14z m1539 -1493 c776
-386 1224 -614 1249 -636 56 -50 80 -104 80 -176 0 -72 -24 -126 -80 -176 -25
-22 -477 -253 -1251 -639 -1199 -598 -1212 -605 -1272 -605 -60 0 -73 7 -1272
605 -774 386 -1226 617 -1251 639 -107 95 -110 249 -5 348 37 35 2413 1227
2476 1242 20 5 55 7 77 5 27 -3 435 -201 1249 -607z m-2423 -2342 l1149 -575
1153 577 c1128 564 1153 576 1212 577 196 3 309 -220 192 -377 -30 -39 -110
-81 -1265 -659 -1218 -611 -1233 -618 -1292 -618 -59 0 -74 7 -1278 609 -670
335 -1232 621 -1249 635 -74 63 -98 187 -54 279 43 88 139 142 234 131 39 -4
291 -126 1198 -579z m-9 -1182 l1158 -578 1158 578 c1099 549 1160 578 1210
578 133 -2 235 -104 235 -236 0 -72 -24 -126 -80 -176 -25 -22 -477 -252
-1250 -638 l-1210 -604 -63 0 -63 0 -1210 604 c-773 386 -1225 616 -1250 638
-107 95 -110 248 -5 348 45 43 92 62 158 63 53 1 90 -16 1212 -577z"/>
<path d="M2572 5142 l-912 -457 920 -460 920 -460 911 455 c501 250 913 458
915 462 5 8 -1809 918 -1828 917 -7 0 -424 -206 -926 -457z"/>
</g>
</svg>
